<svg xmlns="http://www.w3.org/2000/svg" viewBox="0 0 174.2 36.15"><defs><style>.cls-1{fill:#fdb913;}.cls-2{fill:#414042;}</style></defs><g id="Layer_2" data-name="Layer 2"><g id="Layer_1-2" data-name="Layer 1"><path class="cls-1" d="M36.15,18.08A18.08,18.08,0,1,0,18.08,36.15h9v-9h-9a9,9,0,1,1,9-9Z"/><rect class="cls-2" x="36.17" y="27.11" width="9.03" height="9.04"/><path d="M56.86,24.79a6.33,6.33,0,0,1,2.42-2.37,7.08,7.08,0,0,1,7.06.17,5.76,5.76,0,0,1,2.36,2.9H66.13A3.42,3.42,0,0,0,64.72,24a4.18,4.18,0,0,0-2.09-.51,4.56,4.56,0,0,0-2.31.58,4.11,4.11,0,0,0-1.58,1.67,5.83,5.83,0,0,0,0,5.07,4.07,4.07,0,0,0,1.58,1.68,4.47,4.47,0,0,0,2.31.6,4.18,4.18,0,0,0,2.09-.51A3.47,3.47,0,0,0,66.13,31H68.7a5.78,5.78,0,0,1-2.36,2.89,7.2,7.2,0,0,1-7.07.16,6.38,6.38,0,0,1-2.41-2.37,7.09,7.09,0,0,1,0-6.88Z"/><path d="M73.8,34.06a6.31,6.31,0,0,1-2.42-2.39,7,7,0,0,1,0-6.88,6.33,6.33,0,0,1,2.42-2.37,7,7,0,0,1,6.72,0,6.31,6.31,0,0,1,2.41,2.37,7.09,7.09,0,0,1,0,6.88,6.29,6.29,0,0,1-2.41,2.39,7.07,7.07,0,0,1-6.72,0Zm5.66-1.6a4.06,4.06,0,0,0,1.59-1.69,5.94,5.94,0,0,0,0-5.08A4.13,4.13,0,0,0,79.46,24a4.89,4.89,0,0,0-4.62,0,4.07,4.07,0,0,0-1.59,1.67,5.94,5.94,0,0,0,0,5.08,4,4,0,0,0,1.59,1.69,4.82,4.82,0,0,0,4.62,0Z"/><path d="M96.64,34.78H94.5L88.06,25v9.74H85.92V21.71h2.14l6.44,9.73V21.71h2.14Z"/><path d="M107.89,21.73v1.75h-3.47v11.3h-2.14V23.48h-3.5V21.73Z"/><path d="M112.65,34.06a6.31,6.31,0,0,1-2.42-2.39,7.09,7.09,0,0,1,0-6.88,6.33,6.33,0,0,1,2.42-2.37,7,7,0,0,1,6.72,0,6.33,6.33,0,0,1,2.42,2.37,7.16,7.16,0,0,1,0,6.88,6.31,6.31,0,0,1-2.42,2.39,7.07,7.07,0,0,1-6.72,0Zm5.66-1.6a4,4,0,0,0,1.59-1.69,5.94,5.94,0,0,0,0-5.08A4.07,4.07,0,0,0,118.31,24a4.5,4.5,0,0,0-2.31-.58,4.56,4.56,0,0,0-2.31.58,4.11,4.11,0,0,0-1.58,1.67,5.85,5.85,0,0,0,0,5.08,4,4,0,0,0,1.58,1.69,4.46,4.46,0,0,0,2.31.59A4.41,4.41,0,0,0,118.31,32.46Z"/><path d="M126.89,21.73v8.32a2.69,2.69,0,0,0,3,3,3,3,0,0,0,2.19-.76,3,3,0,0,0,.78-2.23V21.73H135V30a5,5,0,0,1-.69,2.71,4.35,4.35,0,0,1-1.86,1.65,6.08,6.08,0,0,1-2.58.54,6,6,0,0,1-2.56-.54,4.17,4.17,0,0,1-1.83-1.65,5.12,5.12,0,0,1-.68-2.71V21.73Z"/><path d="M144.51,34.78l-3-5.22h-1.63v5.22h-2.14v-13h4.51a5.58,5.58,0,0,1,2.54.53,3.59,3.59,0,0,1,1.56,1.41,3.84,3.84,0,0,1,.52,2,3.89,3.89,0,0,1-.75,2.32,3.75,3.75,0,0,1-2.28,1.41l3.23,5.41Zm-4.64-6.93h2.37a2.49,2.49,0,0,0,1.81-.6,2.15,2.15,0,0,0,.61-1.61,2.09,2.09,0,0,0-.6-1.59,2.56,2.56,0,0,0-1.82-.57h-2.37Z"/><path d="M160.32,34.78h-2.14L151.74,25v9.74H149.6V21.71h2.14l6.44,9.73V21.71h2.14Z"/><path d="M171,32.12h-5.47l-.94,2.66h-2.23L167,21.71h2.48l4.68,13.07h-2.26Zm-.61-1.75-2.12-6.07-2.14,6.07Z"/></g></g></svg>